{
.appVersion = "3151";
.formatVersion = 3;
customParameters = (
{
name = vendorID;
value = GOOG;
},
{
name = panose;
value = (
2,
2,
7,
0,
0,
0,
0,
0,
0,
0
);
},
{
name = unicodeRanges;
value = (
0,
1,
7,
29,
36,
42,
43,
44,
45,
48,
49,
50,
51,
52,
54,
55,
57,
59,
61,
65,
66,
68
);
},
{
name = codePageRanges;
value = (
"1252",
"1250",
"1251",
"1258",
"932",
"936",
"bit 29",
"bit 30"
);
},
{
name = fsType;
value = (
);
},
{
name = ROS;
value = "Adobe-Identity-0";
}
);
date = "2017-05-01 11:29:20 +0000";
familyName = "Yaku Han MP";
featurePrefixes = (
{
automatic = 1;
code = "languagesystem DFLT dflt;
";
name = Languagesystems;
}
);
features = (
{
automatic = 1;
code = "feature vert;
feature vrt2;
";
tag = aalt;
},
{
code = "sub comma-han by comma-han.vert;
sub period-han by period-han.vert;
sub colon.full by colon.full.vert;
sub blacklenticularbracketleft by blacklenticularbracketleft.vert;
sub blacklenticularbracketright by blacklenticularbracketright.vert;
sub cornerbracketleft by cornerbracketleft.vert;
sub cornerbracketright by cornerbracketright.vert;
sub dblanglebracketleft by dblanglebracketleft.vert;
sub dblanglebracketright by dblanglebracketright.vert;
sub tortoiseshellbracketleft by tortoiseshellbracketleft.vert;
sub tortoiseshellbracketright by tortoiseshellbracketright.vert;
sub whitecornerbracketleft by whitecornerbracketleft.vert;
sub whitecornerbracketright by whitecornerbracketright.vert;
sub whitelenticularbracketleft by whitelenticularbracketleft.vert;
sub whitelenticularbracketright by whitelenticularbracketright.vert;
sub braceleft.full by braceleft.full.vert;
sub braceright.full by braceright.full.vert;
sub bracketleft.full by bracketleft.full.vert;
sub bracketright.full by bracketright.full.vert;
sub parenleft.full by parenleft.full.vert;
sub parenright.full by parenright.full.vert;
sub angleLeft by anglebracketleft.vert;
sub angleRight by anglebracketright.vert;";
tag = vert;
},
{
automatic = 1;
code = "sub comma-han by comma-han.vert;

glyphs = (
{
glyphname = .notdef;
layers = (
{
hints = (
{
horizontal = 1;
place = (-120, 50);
place = (-120, 50);
type = Stem;
},
{
horizontal = 1;
place = (830, 50);
place = (830, 50);
type = Stem;
},
{
place = (100, 50);
place = (100, 50);
type = Stem;
},
{
place = (850, 50);
place = (850, 50);
type = Stem;
},
{
horizontal = 1;
place = (789, 91);
place = (789, 91);
type = Stem;
}
);
layerId = m01;
shapes = (
{
closed = 1;
nodes = (
(100,-120,l),
(900,-120,l),
(900,880,l),
(100,880,l)
);
},
{
closed = 1;
nodes = (
(500,421,l),
(182,830,l),
(818,830,l)
);
},
{
closed = 1;
nodes = (
(532,380,l),
(850,789,l),
(850,-29,l)
);
},
{
closed = 1;
nodes = (
(182,-70,l),
(500,339,l),
(818,-70,l)
);
},
{
closed = 1;
nodes = (
(150,789,l),
(468,380,l),
(150,-29,l)
);
}
);
vertWidth = 1000;
width = 1000;
}
);
note = ".notdef";
},
{
glyphname = "comma-han";
kernLeft = "comma-han";
layers = (
{
hints = (
{
horizontal = 1;
place = (-80, 259);
place = (-80, 259);
type = Stem;
},
{
place = (33, 274);
place = (33, 274);
type = Stem;
}
);
layerId = m01;
shapes = (
{
closed = 1;
nodes = (
(33,166,l),
(123,94,o),
(151,21,o),
(178,-35,cs),
(193,-67,o),
(214,-80,o),
(243,-80,cs),
(282,-80,o),
(307,-54,o),
(307,-14,cs),
(307,7,o),
(303,29,o),
(286,53,cs),
(249,109,o),
(176,155,o),
(42,179,c)
);
}
);
vertWidth = 1000;
width = 1000;
}
);
note = cid01397;
unicode = 12289;
},
{
glyphname = "comma-han.vert";
kernBottom = comma.full.vert;
layers = (
{
hints = (
{
horizontal = 1;
place = (590, 259);
place = (590, 259);
type = Stem;
},
{
place = (678, 275);
place = (678, 275);
type = Stem;
}
);
layerId = m01;
shapes = (
{
closed = 1;
nodes = (
(678,836,l),
(767,764,o),
(795,690,o),
(822,635,cs),
(837,602,o),
(858,590,o),
(887,590,cs),
(927,590,o),
(953,617,o),
(953,657,cs),
(953,678,o),
(949,699,o),
(932,724,cs),
(895,780,o),
(821,826,o),
(686,849,c)
);
}
);
vertWidth = 1000;
width = 1000;
}
);
note = cid59877;
unicode = 65041;
},
{
glyphname = "period-han";
kernLeft = "comma-han";
layers = (
{
hints = (
{
horizontal = 1;
place = (-83, 36);
place = (-83, 36);
type = Stem;
},
{
horizontal = 1;
place = (164, 36);
place = (164, 36);
type = Stem;
},
{
place = (41, 36);
place = (41, 36);
type = Stem;
},
{
place = (288, 36);
place = (288, 36);
type = Stem;
}
);
layerId = m01;
shapes = (
{
closed = 1;
nodes = (
(261,-83,o),
(324,-19,o),
(324,59,cs),
(324,137,o),
(261,200,o),
(183,200,cs),
(105,200,o),
(41,137,o),
(41,59,cs),
(41,-19,o),
(105,-83,o),
(183,-83,cs)
);
},
{
closed = 1;
nodes = (
(241,164,o),
(288,117,o),
(288,59,cs),
(288,1,o),
(241,-47,o),
(183,-47,cs),
(124,-47,o),
(77,1,o),
(77,59,cs),
(77,117,o),
(124,164,o),
(183,164,cs)
);
}
);
vertWidth = 1000;
width = 1000;
}
);
note = cid01398;
unicode = 12290;
},
{
glyphname = "period-han.vert";
kernBottom = comma.full.vert;
layers = (
{
hints = (
{
horizontal = 1;
place = (544, 36);
place = (544, 36);
type = Stem;
},
{
horizontal = 1;
place = (791, 36);
place = (791, 36);
type = Stem;
},
{
place = (688, 36);
place = (688, 36);
type = Stem;
},
{
place = (935, 36);
place = (935, 36);
type = Stem;
}
);
layerId = m01;
shapes = (
{
closed = 1;
nodes = (
(909,544,o),
(971,607,o),
(971,686,cs),
(971,765,o),
(909,827,o),
(830,827,cs),
(751,827,o),
(688,765,o),
(688,686,cs),
(688,607,o),
(751,544,o),
(830,544,cs)
);
},
{
closed = 1;
nodes = (
(887,791,o),
(935,743,o),
(935,686,cs),
(935,629,o),
(887,580,o),
(830,580,cs),
(771,580,o),
(724,629,o),
(724,686,cs),
(724,743,o),
(771,791,o),
(830,791,cs)
);
}
);
vertWidth = 1000;
width = 1000;
}
);
note = cid59878;
unicode = 65042;
},
{
glyphname = "dot-kata";
layers = (
{
hints = (
{
horizontal = 1;
place = (269, 222);
place = (269, 222);
type = Stem;
},
{
place = (389, 222);
place = (389, 222);
type = Stem;
}
);
layerId = m01;
shapes = (
{
closed = 1;
nodes = (
(611,441,o),
(561,491,o),
(500,491,cs),
(439,491,o),
(389,441,o),
(389,380,cs),
(389,319,o),
(439,269,o),
(500,269,cs),
(561,269,o),
(611,319,o),
(611,380,cs)
);
}
);
vertWidth = 1000;
width = 1000;
}
);
note = cid01644;
unicode = 12539;
},
{
glyphname = colon.full;
layers = (
{
hints = (
{
horizontal = 1;
place = (35, 171);
place = (35, 171);
type = Stem;
},
{
horizontal = 1;
place = (496, 170);
place = (496, 170);
type = Stem;
},
{
place = (413, 172);
place = (413, 172);
type = Stem;
}
);
layerId = m01;
shapes = (
{
closed = 1;
nodes = (
(413,73,o),
(450,35,o),
(499,35,cs),
(547,35,o),
(585,73,o),
(585,120,cs),
(585,167,o),
(547,206,o),
(499,206,cs),
(450,206,o),
(413,167,o),
(413,120,cs)
);
},
{
closed = 1;
nodes = (
(413,534,o),
(450,496,o),
(499,496,cs),
(547,496,o),
(585,534,o),
(585,581,cs),
(585,628,o),
(547,666,o),
(499,666,cs),
(450,666,o),
(413,628,o),
(413,581,cs)
);
}
);
vertWidth = 1000;
width = 1000;
}
);
note = cid59969;
unicode = 65306;
},
{
glyphname = exclam.full;
layers = (
{
hints = (
{
horizontal = 1;
place = (-14, 159);
place = (-14, 159);
type = Stem;
},
{
place = (419, 162);
place = (419, 162);
type = Stem;
},
{
place = (422, 155);
place = (422, 155);
type = Stem;
}
);
layerId = m01;
shapes = (
{
closed = 1;
nodes = (
(546,-14,o),
(581,22,o),
(581,66,cs),
(581,109,o),
(546,145,o),
(499,145,cs),
(453,145,o),
(419,109,o),
(419,66,cs),
(419,22,o),
(453,-14,o),
(499,-14,cs)
);
},
{
closed = 1;
nodes = (
(455,768,o),
(422,739,o),
(422,678,cs),
(422,628,o),
(431,546,o),
(463,367,cs),
(484,232,l),
(516,232,l),
(537,367,ls),
(569,546,o),
(577,628,o),
(577,678,cs),
(577,739,o),
(545,768,o),
(500,768,cs)
);
}
);
vertWidth = 1000;
width = 1000;
}
);
note = cid59944;
unicode = 65281;
},
{
glyphname = question.full;
layers = (
{
hints = (
{
horizontal = 1;
place = (-14, 159);
place = (-14, 159);
type = Stem;
},
{
horizontal = 1;
place = (731, 37);
place = (731, 37);
type = Stem;
},
{
place = (383, 161);
place = (383, 161);
type = Stem;
},
{
place = (608, 125);
place = (608, 125);
type = Stem;
},
{
place = (430, 50.5);
place = (430, 50.5);
type = Stem;
}
);
layerId = m01;
shapes = (
{
closed = 1;
nodes = (
(417,145,o),
(383,109,o),
(383,65,cs),
(383,22,o),
(417,-14,o),
(463,-14,cs),
(509,-14,o),
(544,22,o),
(544,65,cs),
(544,109,o),
(509,145,o),
(463,145,cs)
);
},
{
closed = 1;
nodes = (
(398,722,l),
(418,729,o),
(436,731,o),
(458,731,cs),
(548,731,o),
(608,689,o),
(608,603,cs),
(608,537,o),
(580,501,o),
(519,450,cs),
(455,395,o),
(430,369,o),
(430,322,cs),
(430,296,o),
(437,254,o),
(442,221,c),
(478,221,l),
(483,282,ls),
(489,335,o),
(514,353,o),
(592,401,cs),
(694,463,o),
(733,514,o),
(733,593,cs),
(733,697,o),
(652,768,o),
(492,768,cs),
(354,768,o),
(250,699,o),
(243,577,c),
(257,557,o),
(278,546,o),
(303,546,cs),
(344,546,o),
(368,567,o),
(379,632,cs)
);
}
);
vertWidth = 1000;
width = 1000;
}
);
note = cid59974;
unicode = 65311;
},
{
glyphname = semicolon.full;
layers = (
{
hints = (
{
horizontal = 1;
place = (496, 170);
place = (496, 170);
type = Stem;
},
{
place = (412, 173);
place = (412, 173);
type = Stem;
},
{
place = (518, 67);
place = (518, 67);
type = Stem;
},
{
place = (413, 172);
place = (413, 172);
type = Stem;
}
);
layerId = m01;
shapes = (
{
closed = 1;
nodes = (
(423,-115,l),
(542,-63,o),
(585,46,o),
(585,136,cs),
(585,203,o),
(546,242,o),
(495,242,cs),
(444,242,o),
(412,204,o),
(412,161,cs),
(412,96,o),
(476,73,o),
(518,58,c),
(512,14,o),
(484,-45,o),
(405,-84,c)
);
},
{
closed = 1;
nodes = (
(413,534,o),
(451,496,o),
(499,496,cs),
(547,496,o),
(585,534,o),
(585,581,cs),
(585,628,o),
(547,666,o),
(499,666,cs),
(451,666,o),
(413,628,o),
(413,581,cs)
);
}
);
vertWidth = 1000;
width = 1000;
}
);
note = cid59970;
unicode = 65307;
},
{
glyphname = colon.full.vert;
lastChange = "2023-08-27 06:01:54 +0000";
layers = (
{
hints = (
{
horizontal = 1;
place = (294, 172);
place = (294, 172);
type = Stem;
},
{
place = (185, 170);
place = (185, 170);
type = Stem;
},
{
place = (645, 171);
place = (645, 171);
type = Stem;
}
);
layerId = m01;
shapes = (
{
closed = 1;
nodes = (
(645,332,o),
(684,294,o),
(732,294,cs),
(779,294,o),
(816,332,o),
(816,380,cs),
(816,428,o),
(779,466,o),
(732,466,cs),
(684,466,o),
(645,428,o),
(645,380,cs)
);
},
{
closed = 1;
nodes = (
(185,332,o),
(223,294,o),
(271,294,cs),
(318,294,o),
(355,332,o),
(355,380,cs),
(355,428,o),
(318,466,o),
(271,466,cs),
(223,466,o),
(185,428,o),
(185,380,cs)
);
}
);
vertWidth = 1000;
width = 1000;
}
);
note = cid64716;
},
{
glyphname = angleLeft;
layers = (
{
hints = (
{
horizontal = 1;
place = (-92, 944);
place = (-92, 944);
type = Stem;
},
{
place = (530, 441);
place = (530, 441);
type = Stem;
}
);
layerId = m01;
shapes = (
{
closed = 1;
nodes = (
(971,826,l),
(941,852,l),
(530,380,l),
(941,-92,l),
(971,-66,l),
(583,380,l)
);
}
);
vertWidth = 1000;
width = 1000;
}
);
note = cid01404;
unicode = (9001,12296);
},
{
glyphname = angleRight;
layers = (
{
hints = (
{
horizontal = 1;
place = (-92, 944);
place = (-92, 944);
type = Stem;
},
{
place = (29, 441);
place = (29, 441);
type = Stem;
}
);
layerId = m01;
shapes = (
{
closed = 1;
nodes = (
(29,-66,l),
(59,-92,l),
(470,380,l),
(59,852,l),
(29,826,l),
(417,380,l)
);
}
);
vertWidth = 1000;
width = 1000;
}
);
note = cid01405;
unicode = (9002,12297);
},
{
glyphname = blacklenticularbracketleft;
layers = (
{
hints = (
{
horizontal = 1;
place = (-91, 17);
place = (-91, 17);
type = Stem;
},
{
horizontal = 1;
place = (834, 17);
place = (834, 17);
type = Stem;
},
{
place = (628, 80);
place = (628, 80);
type = Stem;
}
);
layerId = m01;
shapes = (
{
closed = 1;
nodes = (
(971,-74,l),
(813,-1,o),
(708,156,o),
(708,380,cs),
(708,604,o),
(813,761,o),
(971,834,c),
(971,851,l),
(628,851,l),
(628,-91,l),
(971,-91,l)
);
}
);
vertWidth = 1000;
width = 1000;
}
);
note = cid01412;
unicode = 12304;
},
{
glyphname = blacklenticularbracketright;
layers = (
{
hints = (
{
horizontal = 1;
place = (-91, 17);
place = (-91, 17);
type = Stem;
},
{
horizontal = 1;
place = (834, 17);
place = (834, 17);
type = Stem;
},
{
place = (292, 80);
place = (292, 80);
type = Stem;
}
);
layerId = m01;
shapes = (
{
closed = 1;
nodes = (
(29,-91,l),
(372,-91,l),
(372,851,l),
(29,851,l),
(29,834,l),
(187,761,o),
(292,604,o),
(292,380,cs),
(292,156,o),
(187,-1,o),
(29,-74,c)
);
}
);
vertWidth = 1000;
width = 1000;
}
);
note = cid01413;
unicode = 12305;
},
{
glyphname = braceleft.full;
layers = (
{
hints = (
{
horizontal = 1;
place = (-115, 38);
place = (-115, 38);
type = Stem;
},
{
horizontal = 1;
place = (837.5, 38.5);
place = (837.5, 38.5);
type = Stem;
},
{
place = (691, 118);
place = (691, 118);
type = Stem;
},
{
place = (731, 94);
place = (731, 94);
type = Stem;
}
);
layerId = m01;
shapes = (
{
closed = 1;
nodes = (
(973,839,l),
(973,876,l),
(929,876,ls),
(781,876,o),
(691,827,o),
(691,730,cs),
(691,643,o),
(731,572,o),
(731,503,cs),
(731,451,o),
(700,422,o),
(574,399,c),
(574,362,l),
(700,339,o),
(731,309,o),
(731,258,cs),
(731,189,o),
(691,117,o),
(691,31,cs),
(691,-67,o),
(781,-115,o),
(929,-115,cs),
(973,-115,l),
(973,-79,l),
(929,-75,ls),
(844,-68,o),
(809,-33,o),
(809,36,cs),
(809,103,o),
(825,170,o),
(825,236,cs),
(825,301,o),
(781,356,o),
(679,380,c),
(781,404,o),
(825,459,o),
(825,525,cs),
(825,591,o),
(809,655,o),
(809,726,cs),
(809,794,o),
(844,831,o),
(929,836,cs)
);
}
);
vertWidth = 1000;
width = 1000;
}
);
note = cid60034;
unicode = 65371;
},
{
glyphname = braceright.full;
layers = (
{
hints = (
{
horizontal = 1;
place = (-116, 38.5);
place = (-116, 38.5);
type = Stem;
},
{
horizontal = 1;
place = (837, 38);
place = (837, 38);
type = Stem;
},
{
place = (191, 118);
place = (191, 118);
type = Stem;
},
{
place = (175, 94);
place = (175, 94);
type = Stem;
}
);
layerId = m01;
shapes = (
{
closed = 1;
nodes = (
(426,398,l),
(300,421,o),
(269,451,o),
(269,502,cs),
(269,571,o),
(309,643,o),
(309,729,cs),
(309,827,o),
(219,875,o),
(71,875,cs),
(27,875,l),
(27,839,l),
(71,835,ls),
(156,828,o),
(191,793,o),
(191,724,cs),
(191,657,o),
(175,590,o),
(175,524,cs),
(175,459,o),
(219,404,o),
(321,380,c),
(219,356,o),
(175,301,o),
(175,235,cs),
(175,169,o),
(191,105,o),
(191,34,cs),
(191,-34,o),
(156,-71,o),
(71,-76,cs),
(27,-79,l),
(27,-116,l),
(71,-116,ls),
(219,-116,o),
(309,-67,o),
(309,30,cs),
(309,117,o),
(269,188,o),
(269,257,cs),
(269,309,o),
(300,338,o),
(426,361,c)
);
}
);
vertWidth = 1000;
width = 1000;
}
);
note = cid60036;
unicode = 65373;
},
{
glyphname = cornerbracketleft;
layers = (
{
hints = (
{
horizontal = 1;
place = (812, 39);
place = (812, 39);
type = Stem;
},
{
place = (649, 41);
place = (649, 41);
type = Stem;
}
);
layerId = m01;
shapes = (
{
closed = 1;
nodes = (
(649,211,l),
(690,211,l),
(690,812,l),
(971,812,l),
(971,851,l),
(649,851,l)
);
}
);
vertWidth = 1000;
width = 1000;
}
);
note = cid01408;
unicode = 12300;
},
{
glyphname = cornerbracketright;
layers = (
{
hints = (
{
horizontal = 1;
place = (-91, 39);
place = (-91, 39);
type = Stem;
},
{
place = (310, 41);
place = (310, 41);
type = Stem;
}
);
layerId = m01;
shapes = (
{
closed = 1;
nodes = (
(351,549,l),
(310,549,l),
(310,-52,l),
(29,-52,l),
(29,-91,l),
(351,-91,l)
);
}
);
vertWidth = 1000;
width = 1000;
}
);
note = cid01409;
unicode = 12301;
},
{
glyphname = dblanglebracketleft;
layers = (
{
hints = (
{
horizontal = 1;
place = (-94, 948);
place = (-94, 948);
type = Stem;
},
{
place = (527, 443);
place = (527, 443);
type = Stem;
}
);
layerId = m01;
shapes = (
{
closed = 1;
nodes = (
(567,380,l),
(828,836,l),
(799,854,l),
(527,380,l),
(799,-94,l),
(828,-76,l)
);
},
{
closed = 1;
nodes = (
(709,380,l),
(970,836,l),
(941,854,l),
(669,380,l),
(941,-94,l),
(970,-76,l)
);
}
);
vertWidth = 1000;
width = 1000;
}
);
note = cid01406;
unicode = 12298;
},
{
glyphname = dblanglebracketright;
layers = (
{
hints = (
{
horizontal = 1;
place = (-94, 948);
place = (-94, 948);
type = Stem;
},
{
place = (30, 443);
place = (30, 443);
type = Stem;
}
);
layerId = m01;
shapes = (
{
closed = 1;
nodes = (
(201,-94,l),
(473,380,l),
(201,854,l),
(172,836,l),
(433,380,l),
(172,-76,l)
);
},
{
closed = 1;
nodes = (
(59,-94,l),
(331,380,l),
(59,854,l),
(30,836,l),
(291,380,l),
(30,-76,l)
);
}
);
vertWidth = 1000;
width = 1000;
}
);
note = cid01407;
unicode = 12299;
},
{
glyphname = tortoiseshellbracketleft;
layers = (
{
hints = (
{
horizontal = 1;
place = (-93, 946);
place = (-93, 946);
type = Stem;
},
{
place = (721, 41);
place = (721, 41);
type = Stem;
}
);
layerId = m01;
shapes = (
{
closed = 1;
nodes = (
(953,-93,l),
(971,-58,l),
(762,40,l),
(762,720,l),
(971,818,l),
(953,853,l),
(721,744,l),
(721,16,l)
);
}
);
vertWidth = 1000;
width = 1000;
}
);
note = cid01416;
unicode = 12308;
},
{
glyphname = tortoiseshellbracketright;
layers = (
{
hints = (
{
horizontal = 1;
place = (-93, 946);
place = (-93, 946);
type = Stem;
},
{
place = (238, 41);
place = (238, 41);
type = Stem;
}
);
layerId = m01;
shapes = (
{
closed = 1;
nodes = (
(47,-93,l),
(279,16,l),
(279,744,l),
(47,853,l),
(29,818,l),
(238,719,l),
(238,41,l),
(29,-58,l)
);
}
);
vertWidth = 1000;
width = 1000;
}
);
note = cid01417;
unicode = 12309;
},
{
glyphname = whitecornerbracketleft;
layers = (
{
hints = (
{
horizontal = 1;
place = (206, 28);
place = (206, 28);
type = Stem;
},
{
horizontal = 1;
place = (705, 28);
place = (705, 28);
type = Stem;
},
{
horizontal = 1;
place = (823, 28);
place = (823, 28);
type = Stem;
},
{
place = (620, 28);
place = (620, 28);
type = Stem;
},
{
place = (742, 28);
place = (742, 28);
type = Stem;
},
{
place = (943, 28);
place = (943, 28);
type = Stem;
}
);
layerId = m01;
shapes = (
{
closed = 1;
nodes = (
(971,705,l),
(971,851,l),
(620,851,l),
(620,206,l),
(770,206,l),
(770,705,l)
);
},
{
closed = 1;
nodes = (
(943,823,l),
(943,733,l),
(742,733,l),
(742,234,l),
(648,234,l),
(648,823,l)
);
}
);
vertWidth = 1000;
width = 1000;
}
);
note = cid01410;
unicode = 12302;
},
{
glyphname = whitecornerbracketright;
layers = (
{
hints = (
{
horizontal = 1;
place = (-91, 28);
place = (-91, 28);
type = Stem;
},
{
horizontal = 1;
place = (27, 28);
place = (27, 28);
type = Stem;
},
{
horizontal = 1;
place = (526, 28);
place = (526, 28);
type = Stem;
},
{
place = (29, 28);
place = (29, 28);
type = Stem;
},
{
place = (230, 28);
place = (230, 28);
type = Stem;
},
{
place = (352, 28);
place = (352, 28);
type = Stem;
}
);
layerId = m01;
shapes = (
{
closed = 1;
nodes = (
(29,55,l),
(29,-91,l),
(380,-91,l),
(380,554,l),
(230,554,l),
(230,55,l)
);
},
{
closed = 1;
nodes = (
(57,-63,l),
(57,27,l),
(258,27,l),
(258,526,l),
(352,526,l),
(352,-63,l)
);
}
);
vertWidth = 1000;
width = 1000;
}
);
note = cid01411;
unicode = 12303;
},
{
glyphname = whitelenticularbracketleft;
layers = (
{
hints = (
{
horizontal = 1;
place = (-91, 28);
place = (-91, 28);
type = Stem;
},
{
horizontal = 1;
place = (823, 28);
place = (823, 28);
type = Stem;
},
{
place = (623, 28);
place = (623, 28);
type = Stem;
},
{
horizontal = 1;
place = (831, 20);
place = (831, 20);
type = Stem;
},
{
place = (681, 28);
place = (681, 28);
type = Stem;
}
);
layerId = m01;
shapes = (
{
closed = 1;
nodes = (
(971,-71,l),
(815,-2,o),
(709,156,o),
(709,380,cs),
(709,604,o),
(815,762,o),
(971,831,c),
(971,851,l),
(623,851,l),
(623,-91,l),
(971,-91,l)
);
},
{
closed = 1;
nodes = (
(651,-63,l),
(651,823,l),
(898,823,l),
(809,767,o),
(681,635,o),
(681,380,cs),
(681,125,o),
(809,-7,o),
(898,-63,c)
);
}
);
vertWidth = 1000;
width = 1000;
}
);
note = cid01418;
unicode = 12310;
},
{
glyphname = whitelenticularbracketright;
layers = (
{
hints = (
{
horizontal = 1;
place = (-91, 28);
place = (-91, 28);
type = Stem;
},
{
horizontal = 1;
place = (823, 28);
place = (823, 28);
type = Stem;
},
{
place = (350, 28);
place = (350, 28);
type = Stem;
},
{
horizontal = 1;
place = (831, 20);
place = (831, 20);
type = Stem;
},
{
place = (292, 28);
place = (292, 28);
type = Stem;
}
);
layerId = m01;
shapes = (
{
closed = 1;
nodes = (
(378,-91,l),
(378,851,l),
(30,851,l),
(30,831,l),
(185,762,o),
(292,604,o),
(292,380,cs),
(292,156,o),
(185,-2,o),
(30,-71,c),
(30,-91,l)
);
},
{
closed = 1;
nodes = (
(320,635,o),
(192,767,o),
(102,823,c),
(350,823,l),
(350,-63,l),
(102,-63,l),
(192,-7,o),
(320,125,o),
(320,380,cs)
);
}
);
vertWidth = 1000;
width = 1000;
}
);
note = cid01419;
unicode = 12311;
},
{
glyphname = anglebracketleft.vert;
layers = (
{
hints = (
{
horizontal = 1;
place = (-91, 441);
place = (-91, 441);
type = Stem;
},
{
place = (28, 944);
place = (28, 944);
type = Stem;
}
);
layerId = m01;
shapes = (
{
closed = 1;
nodes = (
(946,-91,l),
(972,-61,l),
(500,350,l),
(28,-61,l),
(54,-91,l),
(500,297,l)
);
}
);
vertWidth = 1000;
width = 1000;
}
);
note = cid59901;
unicode = 65087;
},
{
glyphname = anglebracketright.vert;
layers = (
{
hints = (
{
horizontal = 1;
place = (410, 441);
place = (410, 441);
type = Stem;
},
{
place = (28, 944);
place = (28, 944);
type = Stem;
}
);
layerId = m01;
shapes = (
{
closed = 1;
nodes = (
(54,851,l),
(28,821,l),
(500,410,l),
(972,821,l),
(946,851,l),
(500,463,l)
);
}
);
vertWidth = 1000;
width = 1000;
}
);
note = cid59902;
unicode = 65088;
},
{
glyphname = blacklenticularbracketleft.vert;
layers = (
{
hints = (
{
horizontal = 1;
place = (172, 80);
place = (172, 80);
type = Stem;
},
{
place = (29, 17);
place = (29, 17);
type = Stem;
},
{
place = (954, 17);
place = (954, 17);
type = Stem;
}
);
layerId = m01;
shapes = (
{
closed = 1;
nodes = (
(46,-91,l),
(119,67,o),
(276,172,o),
(500,172,cs),
(724,172,o),
(881,67,o),
(954,-91,c),
(971,-91,l),
(971,252,l),
(29,252,l),
(29,-91,l)
);
}
);
vertWidth = 1000;
width = 1000;
}
);
note = cid59897;
unicode = 65083;
},
{
glyphname = blacklenticularbracketright.vert;
layers = (
{
hints = (
{
horizontal = 1;
place = (508, 80);
place = (508, 80);
type = Stem;
},
{
place = (29, 17);
place = (29, 17);
type = Stem;
},
{
place = (954, 17);
place = (954, 17);
type = Stem;
}
);
layerId = m01;
shapes = (
{
closed = 1;
nodes = (
(954,851,l),
(881,693,o),
(724,588,o),
(500,588,cs),
(276,588,o),
(119,693,o),
(46,851,c),
(29,851,l),
(29,508,l),
(971,508,l),
(971,851,l)
);
}
);
vertWidth = 1000;
width = 1000;
}
);
note = cid59898;
unicode = 65084;
},
{
glyphname = bracketleft.full;
layers = (
{
hints = (
{
horizontal = 1;
place = (-91, 39);
place = (-91, 39);
type = Stem;
},
{
horizontal = 1;
place = (812, 39);
place = (812, 39);
type = Stem;
},
{
place = (721, 41);
place = (721, 41);
type = Stem;
}
);
layerId = m01;
shapes = (
{
closed = 1;
nodes = (
(721,-91,l),
(971,-91,l),
(971,-52,l),
(762,-52,l),
(762,812,l),
(971,812,l),
(971,851,l),
(721,851,l)
);
}
);
vertWidth = 1000;
width = 1000;
}
);
note = cid60002;
unicode = 65339;
},
{
glyphname = bracketright.full;
layers = (
{
hints = (
{
horizontal = 1;
place = (-91, 39);
place = (-91, 39);
type = Stem;
},
{
horizontal = 1;
place = (812, 39);
place = (812, 39);
type = Stem;
},
{
place = (238, 41);
place = (238, 41);
type = Stem;
}
);
layerId = m01;
shapes = (
{
closed = 1;
nodes = (
(279,-91,l),
(279,851,l),
(29,851,l),
(29,812,l),
(238,812,l),
(238,-52,l),
(29,-52,l),
(29,-91,l)
);
}
);
vertWidth = 1000;
width = 1000;
}
);
note = cid60004;
unicode = 65341;
},
{
glyphname = cornerbracketleft.vert;
layers = (
{
hints = (
{
horizontal = 1;
place = (192, 39);
place = (192, 39);
type = Stem;
},
{
place = (934, 41);
place = (934, 41);
type = Stem;
}
);
layerId = m01;
shapes = (
{
closed = 1;
nodes = (
(281,231,l),
(281,192,l),
(934,192,l),
(934,-91,l),
(975,-91,l),
(975,231,l)
);
}
);
vertWidth = 1000;
width = 1000;
}
);
note = cid59903;
unicode = 65089;
},
{
glyphname = cornerbracketright.vert;
layers = (
{
hints = (
{
horizontal = 1;
place = (514, 40);
place = (514, 40);
type = Stem;
},
{
place = (25, 41);
place = (25, 41);
type = Stem;
}
);
layerId = m01;
shapes = (
{
closed = 1;
nodes = (
(719,514,l),
(719,554,l),
(66,554,l),
(66,836,l),
(25,836,l),
(25,514,l)
);
}
);
vertWidth = 1000;
width = 1000;
}
);
note = cid59904;
unicode = 65090;
},
{
glyphname = dblanglebracketleft.vert;
layers = (
{
hints = (
{
horizontal = 1;
place = (-90, 443);
place = (-90, 443);
type = Stem;
},
{
place = (26, 948);
place = (26, 948);
type = Stem;
}
);
layerId = m01;
shapes = (
{
closed = 1;
nodes = (
(500,313,l),
(956,52,l),
(974,81,l),
(500,353,l),
(26,81,l),
(44,52,l)
);
},
{
closed = 1;
nodes = (
(500,171,l),
(956,-90,l),
(974,-61,l),
(500,211,l),
(26,-61,l),
(44,-90,l)
);
}
);
vertWidth = 1000;
width = 1000;
}
);
note = cid59899;
unicode = 65085;
},
{
glyphname = dblanglebracketright.vert;
layers = (
{
hints = (
{
horizontal = 1;
place = (407, 443);
place = (407, 443);
type = Stem;
},
{
place = (26, 948);
place = (26, 948);
type = Stem;
}
);
layerId = m01;
shapes = (
{
closed = 1;
nodes = (
(26,679,l),
(500,407,l),
(974,679,l),
(956,708,l),
(500,447,l),
(44,708,l)
);
},
{
closed = 1;
nodes = (
(26,821,l),
(500,549,l),
(974,821,l),
(956,850,l),
(500,589,l),
(44,850,l)
);
}
);
vertWidth = 1000;
width = 1000;
}
);
note = cid59900;
unicode = 65086;
},
{
glyphname = parenleft.full;
layers = (
{
hints = (
{
horizontal = 1;
place = (-93, 946);
place = (-93, 946);
type = Stem;
},
{
place = (642, 96);
place = (642, 96);
type = Stem;
}
);
layerId = m01;
shapes = (
{
closed = 1;
nodes = (
(642,137,o),
(781,-6,o),
(926,-93,c),
(941,-74,l),
(828,23,o),
(738,162,o),
(738,380,cs),
(738,598,o),
(828,737,o),
(941,834,c),
(926,853,l),
(781,766,o),
(642,623,o),
(642,380,cs)
);
}
);
vertWidth = 1000;
width = 1000;
}
);
note = cid59951;
unicode = 65288;
},
{
glyphname = parenright.full;
layers = (
{
hints = (
{
horizontal = 1;
place = (-93, 946);
place = (-93, 946);
type = Stem;
},
{
place = (262, 96);
place = (262, 96);
type = Stem;
}
);
layerId = m01;
shapes = (
{
closed = 1;
nodes = (
(59,834,l),
(172,737,o),
(262,598,o),
(262,380,cs),
(262,162,o),
(172,23,o),
(59,-74,c),
(74,-93,l),
(219,-6,o),
(358,137,o),
(358,380,cs),
(358,623,o),
(219,766,o),
(74,853,c)
);
}
);
vertWidth = 1000;
width = 1000;
}
);
note = cid59952;
unicode = 65289;
},
{
glyphname = tortoiseshellbracketleft.vert;
layers = (
{
hints = (
{
horizontal = 1;
place = (120, 39);
place = (120, 39);
type = Stem;
},
{
place = (27, 946);
place = (27, 946);
type = Stem;
}
);
layerId = m01;
shapes = (
{
closed = 1;
nodes = (
(136,159,l),
(27,-73,l),
(63,-91,l),
(162,120,l),
(838,120,l),
(937,-91,l),
(973,-73,l),
(864,159,l)
);
}
);
vertWidth = 1000;
width = 1000;
}
);
note = cid59895;
unicode = 65081;
},
{
glyphname = tortoiseshellbracketright.vert;
layers = (
{
hints = (
{
horizontal = 1;
place = (601, 39);
place = (601, 39);
type = Stem;
},
{
place = (27, 946);
place = (27, 946);
type = Stem;
}
);
layerId = m01;
shapes = (
{
closed = 1;
nodes = (
(973,833,l),
(937,851,l),
(838,640,l),
(162,640,l),
(63,851,l),
(27,833,l),
(136,601,l),
(864,601,l)
);
}
);
vertWidth = 1000;
width = 1000;
}
);
note = cid59896;
unicode = 65082;
},
{
glyphname = whitecornerbracketleft.vert;
layers = (
{
hints = (
{
horizontal = 1;
place = (-91, 28);
place = (-91, 28);
type = Stem;
},
{
horizontal = 1;
place = (105, 28);
place = (105, 28);
type = Stem;
},
{
horizontal = 1;
place = (223, 28);
place = (223, 28);
type = Stem;
},
{
place = (326, 28);
place = (326, 28);
type = Stem;
},
{
place = (821, 28);
place = (821, 28);
type = Stem;
},
{
place = (943, 28);
place = (943, 28);
type = Stem;
}
);
layerId = m01;
shapes = (
{
closed = 1;
nodes = (
(821,-91,l),
(971,-91,l),
(971,251,l),
(326,251,l),
(326,105,l),
(821,105,l)
);
},
{
closed = 1;
nodes = (
(943,-63,l),
(849,-63,l),
(849,133,l),
(354,133,l),
(354,223,l),
(943,223,l)
);
}
);
vertWidth = 1000;
width = 1000;
}
);
note = cid59905;
unicode = 65091;
},
{
glyphname = whitecornerbracketright.vert;
layers = (
{
hints = (
{
horizontal = 1;
place = (509, 28);
place = (509, 28);
type = Stem;
},
{
horizontal = 1;
place = (627, 28);
place = (627, 28);
type = Stem;
},
{
horizontal = 1;
place = (823, 28);
place = (823, 28);
type = Stem;
},
{
place = (29, 28);
place = (29, 28);
type = Stem;
},
{
place = (151, 28);
place = (151, 28);
type = Stem;
},
{
place = (646, 28);
place = (646, 28);
type = Stem;
}
);
layerId = m01;
shapes = (
{
closed = 1;
nodes = (
(179,851,l),
(29,851,l),
(29,509,l),
(674,509,l),
(674,655,l),
(179,655,l)
);
},
{
closed = 1;
nodes = (
(57,823,l),
(151,823,l),
(151,627,l),
(646,627,l),
(646,537,l),
(57,537,l)
);
}
);
vertWidth = 1000;
width = 1000;
}
);
note = cid59906;
unicode = 65092;
},
{
glyphname = whitelenticularbracketleft.vert;
layers = (
{
hints = (
{
horizontal = 1;
place = (229, 28);
place = (229, 28);
type = Stem;
},
{
place = (29, 28);
place = (29, 28);
type = Stem;
},
{
place = (943, 28);
place = (943, 28);
type = Stem;
},
{
horizontal = 1;
place = (171, 28);
place = (171, 28);
type = Stem;
}
);
layerId = m01;
shapes = (
{
closed = 1;
nodes = (
(49,-91,l),
(118,65,o),
(276,171,o),
(500,171,cs),
(724,171,o),
(882,65,o),
(951,-91,c),
(971,-91,l),
(971,257,l),
(29,257,l),
(29,-91,l)
);
},
{
closed = 1;
nodes = (
(57,229,l),
(943,229,l),
(943,-18,l),
(887,71,o),
(755,199,o),
(500,199,cs),
(245,199,o),
(113,71,o),
(57,-18,c)
);
}
);
vertWidth = 1000;
width = 1000;
}
);
note = cid59883;
unicode = 65047;
},
{
glyphname = whitelenticularbracketright.vert;
layers = (
{
hints = (
{
horizontal = 1;
place = (508, 28);
place = (508, 28);
type = Stem;
},
{
place = (29, 28);
place = (29, 28);
type = Stem;
},
{
place = (943, 28);
place = (943, 28);
type = Stem;
},
{
horizontal = 1;
place = (566, 28);
place = (566, 28);
type = Stem;
}
);
layerId = m01;
shapes = (
{
closed = 1;
nodes = (
(29,508,l),
(971,508,l),
(971,856,l),
(951,856,l),
(882,701,o),
(724,594,o),
(500,594,cs),
(276,594,o),
(118,701,o),
(49,856,c),
(29,856,l)
);
},
{
closed = 1;
nodes = (
(755,566,o),
(887,694,o),
(943,784,c),
(943,536,l),
(57,536,l),
(57,784,l),
(113,694,o),
(245,566,o),
(500,566,cs)
);
}
);
vertWidth = 1000;
width = 1000;
}
);
note = cid59884;
unicode = 65048;
},
{
glyphname = braceleft.full.vert;
layers = (
{
hints = (
{
horizontal = 1;
place = (38, 118);
place = (38, 118);
type = Stem;
},
{
place = (4, 38.5);
place = (4, 38.5);
type = Stem;
},
{
place = (957.5, 38.5);
place = (957.5, 38.5);
type = Stem;
},
{
horizontal = 1;
place = (16, 94);
place = (16, 94);
type = Stem;
}
);
layerId = m01;
shapes = (
{
closed = 1;
nodes = (
(482,266,l),
(459,141,o),
(429,110,o),
(377,110,cs),
(309,110,o),
(237,156,o),
(150,156,cs),
(53,156,o),
(4,67,o),
(4,-80,cs),
(4,-121,l),
(41,-121,l),
(44,-80,ls),
(50,4,o),
(87,38,o),
(155,38,cs),
(225,38,o),
(289,16,o),
(356,16,cs),
(421,16,o),
(476,60,o),
(500,161,c),
(524,60,o),
(579,16,o),
(645,16,cs),
(710,16,o),
(777,38,o),
(845,38,cs),
(913,38,o),
(950,4,o),
(956,-80,cs),
(959,-121,l),
(996,-121,l),
(996,-80,ls),
(996,67,o),
(947,156,o),
(849,156,cs),
(764,156,o),
(692,110,o),
(623,110,cs),
(571,110,o),
(541,140,o),
(518,266,c)
);
}
);
vertWidth = 1000;
width = 1000;
}
);
note = cid59893;
unicode = 65079;
},
{
glyphname = braceright.full.vert;
layers = (
{
hints = (
{
horizontal = 1;
place = (599, 118);
place = (599, 118);
type = Stem;
},
{
place = (4, 38.5);
place = (4, 38.5);
type = Stem;
},
{
place = (957.5, 38.5);
place = (957.5, 38.5);
type = Stem;
},
{
horizontal = 1;
place = (645, 94);
place = (645, 94);
type = Stem;
}
);
layerId = m01;
shapes = (
{
closed = 1;
nodes = (
(959,876,l),
(956,835,ls),
(950,752,o),
(913,717,o),
(845,717,cs),
(777,717,o),
(711,739,o),
(645,739,cs),
(579,739,o),
(524,695,o),
(500,594,c),
(476,695,o),
(421,739,o),
(356,739,cs),
(289,739,o),
(225,717,o),
(155,717,cs),
(87,717,o),
(50,752,o),
(44,835,cs),
(41,876,l),
(4,876,l),
(4,835,ls),
(4,689,o),
(53,599,o),
(151,599,cs),
(237,599,o),
(309,645,o),
(377,645,cs),
(429,645,o),
(459,614,o),
(482,489,c),
(518,489,l),
(541,615,o),
(571,645,o),
(623,645,cs),
(692,645,o),
(764,599,o),
(850,599,cs),
(947,599,o),
(996,689,o),
(996,835,cs),
(996,876,l)
);
}
);
vertWidth = 1000;
width = 1000;
}
);
note = cid59894;
unicode = 65080;
},
{
glyphname = bracketleft.full.vert;
layers = (
{
hints = (
{
horizontal = 1;
place = (120, 39);
place = (120, 39);
type = Stem;
},
{
place = (29, 41);
place = (29, 41);
type = Stem;
},
{
place = (930, 41);
place = (930, 41);
type = Stem;
}
);
layerId = m01;
shapes = (
{
closed = 1;
nodes = (
(29,159,l),
(29,-91,l),
(70,-91,l),
(70,120,l),
(930,120,l),
(930,-91,l),
(971,-91,l),
(971,159,l)
);
}
);
vertWidth = 1000;
width = 1000;
}
);
note = cid59909;
unicode = 65095;
},
{
glyphname = bracketright.full.vert;
layers = (
{
hints = (
{
horizontal = 1;
place = (601, 39);
place = (601, 39);
type = Stem;
},
{
place = (29, 41);
place = (29, 41);
type = Stem;
},
{
place = (930, 41);
place = (930, 41);
type = Stem;
}
);
layerId = m01;
shapes = (
{
closed = 1;
nodes = (
(971,601,l),
(971,851,l),
(930,851,l),
(930,640,l),
(70,640,l),
(70,851,l),
(29,851,l),
(29,601,l)
);
}
);
vertWidth = 1000;
width = 1000;
}
);
note = cid59910;
unicode = 65096;
},
{
glyphname = parenleft.full.vert;
layers = (
{
hints = (
{
horizontal = 1;
place = (143, 96);
place = (143, 96);
type = Stem;
},
{
place = (27, 946);
place = (27, 946);
type = Stem;
}
);
layerId = m01;
shapes = (
{
closed = 1;
nodes = (
(257,239,o),
(114,100,o),
(27,-45,c),
(46,-60,l),
(143,53,o),
(282,143,o),
(500,143,cs),
(718,143,o),
(857,53,o),
(954,-60,c),
(973,-45,l),
(886,100,o),
(743,239,o),
(500,239,cs)
);
}
);
vertWidth = 1000;
width = 1000;
}
);
note = cid59891;
unicode = 65077;
},
